<svg width="234" height="50" fill="none" xmlns="http://www.w3.org/2000/svg"><g clip-path="url(#a)" fill="#fff"><path d="M36.81 3.222c.86 0 1.556.698 1.556 1.556v6.757c0 .86-.698 1.557-1.556 1.557H14.653c-.86 0-1.558.696-1.558 1.556v20.704c0 .86.698 1.556 1.558 1.556H36.81c.86 0 1.556.697 1.556 1.555v6.758c0 .86-.698 1.555-1.556 1.555H13.203c-.86 0-1.557-.697-1.557-1.555v-5.31c0-.86-.696-1.556-1.556-1.556H4.78c-.86 0-1.557-.696-1.557-1.555V13.2c0-.86.698-1.557 1.556-1.557h5.31c.86 0 1.557-.696 1.557-1.555V4.779c0-.86.697-1.555 1.557-1.555H36.81v-.002Zm0-3.222H13.203a4.784 4.784 0 0 0-4.779 4.78V8.42H4.779A4.785 4.785 0 0 0 0 13.201V36.8a4.784 4.784 0 0 0 4.78 4.779h3.644v3.643a4.784 4.784 0 0 0 4.78 4.78h23.604a4.784 4.784 0 0 0 4.78-4.78v-6.757a4.785 4.785 0 0 0-4.78-4.78h-20.49v-17.37H36.81a4.784 4.784 0 0 0 4.78-4.78V4.78A4.784 4.784 0 0 0 36.81 0ZM57.516 21.003a4.597 4.597 0 0 1 2.406-.657c1.177 0 2.284.398 3.289 1.18l.278.217 1.232-1.58-.266-.218c-1.26-1.036-2.818-1.56-4.63-1.56a6.957 6.957 0 0 0-3.455.897 6.763 6.763 0 0 0-2.527 2.475c-.618 1.047-.933 2.239-.933 3.54 0 1.301.309 2.491.917 3.536a6.587 6.587 0 0 0 2.529 2.478c1.066.596 2.277.898 3.596.898.808 0 1.609-.136 2.384-.405a6.844 6.844 0 0 0 2.084-1.153l.287-.234-1.299-1.45-.259.194c-.94.7-1.984 1.054-3.102 1.054-.918 0-1.76-.22-2.506-.658a4.828 4.828 0 0 1-1.77-1.784 4.904 4.904 0 0 1-.645-2.476 4.986 4.986 0 0 1 2.39-4.294ZM90.071 19.187c-1.08-.617-2.284-.93-3.584-.93-1.3 0-2.507.313-3.585.93a6.858 6.858 0 0 0-2.558 2.541 6.903 6.903 0 0 0-.933 3.505c0 1.321.308 2.527.915 3.584a6.556 6.556 0 0 0 2.53 2.496c1.067.595 2.278.896 3.597.896 1.323 0 2.534-.313 3.602-.931a6.945 6.945 0 0 0 2.54-2.522c.619-1.059.933-2.243.933-3.522a6.98 6.98 0 0 0-.915-3.502 6.722 6.722 0 0 0-2.542-2.545Zm-3.617 11.03c-.874 0-1.69-.221-2.424-.659a4.832 4.832 0 0 1-1.755-1.8 5 5 0 0 1-.644-2.493c0-.857.212-1.676.632-2.435a5.085 5.085 0 0 1 1.744-1.849 4.495 4.495 0 0 1 2.447-.702c.873 0 1.69.223 2.425.658a4.81 4.81 0 0 1 1.755 1.814 5.09 5.09 0 0 1 .645 2.512c0 .898-.216 1.737-.643 2.494a4.845 4.845 0 0 1-1.755 1.8 4.67 4.67 0 0 1-2.427.66ZM116.804 25.516c-.651-.504-1.596-.962-2.799-1.357-.93-.33-1.628-.656-2.07-.969-.375-.263-.557-.658-.557-1.206 0-.522.208-.915.632-1.202.469-.317.978-.47 1.54-.47.497.018.997.12 1.486.3a2.38 2.38 0 0 1 1.11.812l.306.408 1.104-1.734-.205-.2c-1.028-1.006-2.379-1.516-4.01-1.516-1.198 0-2.203.349-2.982 1.036-.796.699-1.197 1.627-1.197 2.756 0 .974.312 1.769.929 2.36.581.56 1.41 1.026 2.466 1.384.85.275 1.467.494 1.838.65.335.138.639.357.903.648.241.268.358.626.358 1.098 0 .674-.222 1.152-.68 1.46-.496.333-1.12.502-1.86.502-.591 0-1.17-.125-1.722-.371a4.494 4.494 0 0 1-1.432-.999l-.295-.311-1.111 1.566.169.207c.512.626 1.185 1.096 2.002 1.395a7.205 7.205 0 0 0 2.487.439c1.48 0 2.639-.39 3.444-1.16.809-.773 1.218-1.8 1.218-3.052-.003-1.088-.363-1.923-1.072-2.474ZM153.367 19.708c-.774-.749-1.808-1.13-3.078-1.13a6.322 6.322 0 0 0-3.148.818 5.654 5.654 0 0 0-1.804 1.595c-.241-.592-.643-1.102-1.203-1.522-.787-.59-1.736-.89-2.817-.89a6.36 6.36 0 0 0-3.269.884 5.8 5.8 0 0 0-1.642 1.438l-.091-1.968h-2.009V32.21h2.218v-7.106c0-.813.202-1.576.597-2.267a4.407 4.407 0 0 1 1.609-1.64 4.208 4.208 0 0 1 2.151-.594c.79.038 1.373.275 1.783.722.418.456.641 1.016.679 1.691v9.195h2.218l-.001-7.216c.039-.791.266-1.531.672-2.196a4.757 4.757 0 0 1 1.603-1.603 4.038 4.038 0 0 1 2.115-.592c.788.038 1.365.275 1.762.72.411.456.629 1.017.667 1.692v9.195h2.218v-9.53c-.044-1.227-.46-2.227-1.23-2.974ZM174.408 18.933h-2.218V32.21h2.218V18.933ZM173.347 12.984c-.389 0-.732.133-1.024.396a1.325 1.325 0 0 0-.453 1.018c0 .399.149.745.446 1.027.291.278.639.42 1.031.42a1.42 1.42 0 0 0 1.015-.403c.287-.272.433-.623.433-1.044 0-.4-.145-.74-.431-1.012a1.434 1.434 0 0 0-1.017-.402ZM202.805 20.678a6.394 6.394 0 0 0-1.681-1.469c-.996-.611-2.053-.921-3.142-.921-1.358 0-2.598.284-3.683.844a6.306 6.306 0 0 0-2.586 2.432c-.62 1.047-.934 2.303-.934 3.733 0 1.343.302 2.554.899 3.598a6.377 6.377 0 0 0 2.448 2.449c1.024.574 2.181.864 3.437.864a6.945 6.945 0 0 0 3.455-.898 7.005 7.005 0 0 0 1.724-1.332v1.972h2.217V18.673h-2.036l-.118 2.005Zm-4.952-.397c1.176 0 2.237.374 3.154 1.112.907.73 1.491 1.646 1.735 2.723v1.75c-.083 1.28-.57 2.302-1.49 3.122-.916.816-2.048 1.23-3.367 1.23a4.68 4.68 0 0 1-2.438-.673 5.046 5.046 0 0 1-1.79-1.82 4.884 4.884 0 0 1-.66-2.491c0-.984.217-1.861.644-2.605a4.497 4.497 0 0 1 1.746-1.731 5.013 5.013 0 0 1 2.466-.617ZM234 32.21l-.001-9.53c-.047-1.203-.473-2.199-1.267-2.96-.794-.758-1.828-1.142-3.074-1.142-1.237 0-2.386.302-3.411.9a5.366 5.366 0 0 0-1.598 1.387l-.089-1.934h-2.01V32.21h2.219v-7.105c0-.874.204-1.662.608-2.344a4.38 4.38 0 0 1 1.607-1.593 4.39 4.39 0 0 1 2.182-.565c.831.02 1.444.252 1.874.708.437.468.668 1.061.708 1.8v9.098H234v.001Z"/></g><defs><clipPath id="a"><path fill="#fff" d="M0 0h234v50H0z"/></clipPath></defs></svg>