<?xml version="1.0" encoding="UTF-8"?>
<!-- Generator: Adobe Illustrator 26.0.3, SVG Export Plug-In . SVG Version: 6.00 Build 0)  -->
<svg version="1.1" id="Calque_1" xmlns="http://www.w3.org/2000/svg" xmlns:xlink="http://www.w3.org/1999/xlink" x="0px" y="0px" viewBox="0 0 234 50" style="enable-background:new 0 0 234 50;" xml:space="preserve">
<style type="text/css">
	.st0{fill:#E3431A;}
	.st1{fill:#320099;}
</style>
<path class="st0" d="M36.8,3.2c0.9,0,1.6,0.7,1.6,1.6v6.8c0,0.9-0.7,1.6-1.6,1.6H14.6c-0.9,0-1.6,0.7-1.6,1.6v20.7  c0,0.9,0.7,1.6,1.6,1.6h22.2c0.9,0,1.6,0.7,1.6,1.6v6.8c0,0.9-0.7,1.6-1.6,1.6H13.2c-0.9,0-1.6-0.7-1.6-1.6v-5.3  c0-0.9-0.7-1.6-1.6-1.6H4.8c-0.9,0-1.6-0.7-1.6-1.6V13.2c0-0.9,0.7-1.6,1.6-1.6h5.3c0.9,0,1.6-0.7,1.6-1.6V4.8  c0-0.9,0.7-1.6,1.6-1.6L36.8,3.2C36.8,3.2,36.8,3.2,36.8,3.2z M36.8,0H13.2c-2.6,0-4.8,2.1-4.8,4.8v3.6H4.8C2.1,8.4,0,10.6,0,13.2  v23.6c0,2.6,2.1,4.8,4.8,4.8h3.6v3.6c0,2.6,2.1,4.8,4.8,4.8h23.6c2.6,0,4.8-2.1,4.8-4.8v-6.8c0-2.6-2.1-4.8-4.8-4.8H16.3V16.3h20.5  c2.6,0,4.8-2.1,4.8-4.8V4.8C41.6,2.1,39.4,0,36.8,0z"/>
<path class="st1" d="M57.5,21c0.7-0.4,1.6-0.7,2.4-0.7c1.2,0,2.3,0.4,3.3,1.2l0.3,0.2l1.2-1.6l-0.3-0.2c-1.3-1-2.8-1.6-4.6-1.6  c-1.2,0-2.4,0.3-3.5,0.9c-1,0.6-1.9,1.4-2.5,2.5c-0.6,1-0.9,2.2-0.9,3.5c0,1.3,0.3,2.5,0.9,3.5c0.6,1,1.5,1.9,2.5,2.5  c1.1,0.6,2.3,0.9,3.6,0.9c0.8,0,1.6-0.1,2.4-0.4c0.8-0.3,1.5-0.7,2.1-1.2l0.3-0.2l-1.3-1.5l-0.3,0.2c-0.9,0.7-2,1-3.1,1  c-0.9,0-1.8-0.2-2.5-0.7c-0.7-0.4-1.3-1-1.8-1.8c-0.4-0.8-0.7-1.6-0.6-2.5c0-0.9,0.2-1.7,0.7-2.5C56.2,22,56.8,21.4,57.5,21z   M90.1,19.2c-1.1-0.6-2.3-0.9-3.6-0.9c-1.3,0-2.5,0.3-3.6,0.9c-1.1,0.6-1.9,1.5-2.6,2.5c-0.6,1.1-0.9,2.3-0.9,3.5  c0,1.3,0.3,2.5,0.9,3.6c0.6,1,1.5,1.9,2.5,2.5c1.1,0.6,2.3,0.9,3.6,0.9c1.3,0,2.5-0.3,3.6-0.9c1.1-0.6,1.9-1.5,2.5-2.5  c0.6-1.1,0.9-2.2,0.9-3.5c0-1.2-0.3-2.4-0.9-3.5C92,20.7,91.1,19.8,90.1,19.2z M86.5,30.2c-0.9,0-1.7-0.2-2.4-0.7  c-0.7-0.4-1.3-1.1-1.8-1.8c-0.4-0.8-0.6-1.6-0.6-2.5c0-0.9,0.2-1.7,0.6-2.4c0.4-0.8,1-1.4,1.7-1.9c0.7-0.5,1.6-0.7,2.5-0.7  c0.9,0,1.7,0.2,2.4,0.7c0.7,0.4,1.3,1.1,1.8,1.8c0.4,0.8,0.6,1.6,0.6,2.5s-0.2,1.7-0.6,2.5c-0.4,0.7-1,1.4-1.8,1.8  C88.2,30,87.3,30.2,86.5,30.2z M116.8,25.5c-0.6-0.5-1.6-1-2.8-1.4c-0.9-0.3-1.6-0.7-2.1-1c-0.4-0.3-0.6-0.7-0.6-1.2  c0-0.5,0.2-0.9,0.6-1.2c0.5-0.3,1-0.5,1.5-0.5c0.5,0,1,0.1,1.5,0.3c0.5,0.2,0.8,0.4,1.1,0.8l0.3,0.4l1.1-1.7l-0.2-0.2  c-1-1-2.4-1.5-4-1.5c-1.2,0-2.2,0.4-3,1c-0.8,0.7-1.2,1.6-1.2,2.8c0,1,0.3,1.8,0.9,2.4c0.6,0.6,1.4,1,2.5,1.4  c0.6,0.2,1.2,0.4,1.8,0.6c0.3,0.1,0.6,0.4,0.9,0.6c0.2,0.3,0.4,0.6,0.4,1.1c0,0.7-0.2,1.2-0.7,1.5c-0.5,0.3-1.1,0.5-1.9,0.5  c-0.6,0-1.2-0.1-1.7-0.4c-0.5-0.2-1-0.6-1.4-1l-0.3-0.3l-1.1,1.6l0.2,0.2c0.5,0.6,1.2,1.1,2,1.4c0.8,0.3,1.6,0.4,2.5,0.4  c1.5,0,2.6-0.4,3.4-1.2c0.8-0.8,1.2-1.8,1.2-3C117.9,26.9,117.5,26,116.8,25.5z M153.4,19.7c-0.8-0.8-1.8-1.1-3.1-1.1  c-1.1,0-2.2,0.3-3.2,0.8c-0.7,0.4-1.3,0.9-1.8,1.6c-0.2-0.6-0.6-1.1-1.2-1.5c-0.8-0.6-1.7-0.9-2.8-0.9c-1.2,0-2.3,0.3-3.3,0.9  c-0.6,0.4-1.2,0.9-1.6,1.4l-0.1-2h-2v13.3h2.2v-7.1c0-0.8,0.2-1.6,0.6-2.3c0.4-0.7,0.9-1.2,1.6-1.6c0.7-0.4,1.4-0.6,2.2-0.6  c0.8,0,1.4,0.3,1.8,0.7c0.4,0.5,0.6,1,0.7,1.7v9.2h2.2V25c0-0.8,0.3-1.5,0.7-2.2c0.4-0.7,0.9-1.2,1.6-1.6c0.6-0.4,1.4-0.6,2.1-0.6  c0.8,0,1.4,0.3,1.8,0.7c0.4,0.5,0.6,1,0.7,1.7v9.2h2.2v-9.5C154.6,21.4,154.1,20.4,153.4,19.7L153.4,19.7z M174.4,18.9h-2.2v13.3  h2.2V18.9z M173.3,13c-0.4,0-0.7,0.1-1,0.4c-0.3,0.3-0.5,0.6-0.5,1c0,0.4,0.1,0.7,0.4,1c0.3,0.3,0.6,0.4,1,0.4s0.7-0.1,1-0.4  c0.3-0.3,0.4-0.6,0.4-1c0-0.4-0.1-0.7-0.4-1C174.1,13.1,173.7,13,173.3,13L173.3,13z M202.8,20.7c-0.5-0.6-1-1.1-1.7-1.5  c-1-0.6-2.1-0.9-3.1-0.9c-1.4,0-2.6,0.3-3.7,0.8c-1.1,0.5-2,1.4-2.6,2.4c-0.6,1-0.9,2.3-0.9,3.7c0,1.3,0.3,2.6,0.9,3.6  c0.6,1,1.4,1.9,2.5,2.5c1,0.6,2.2,0.9,3.4,0.9c1.2,0,2.4-0.3,3.5-0.9c0.7-0.4,1.3-0.8,1.7-1.3v2h2.2V18.7h-2L202.8,20.7z   M197.9,20.3c1.2,0,2.2,0.4,3.2,1.1c0.9,0.7,1.5,1.6,1.7,2.7v1.8c-0.1,1.3-0.6,2.3-1.5,3.1c-0.9,0.8-2.1,1.2-3.4,1.2  c-0.9,0-1.7-0.2-2.4-0.7c-0.7-0.4-1.4-1.1-1.8-1.8c-0.4-0.8-0.7-1.6-0.7-2.5c0-1,0.2-1.9,0.6-2.6c0.4-0.7,1-1.3,1.7-1.7  C196.1,20.5,197,20.3,197.9,20.3z M234,32.2v-9.5c0-1.2-0.5-2.2-1.3-3c-0.8-0.8-1.8-1.1-3.1-1.1c-1.2,0-2.4,0.3-3.4,0.9  c-0.6,0.4-1.2,0.8-1.6,1.4l-0.1-1.9h-2v13.3h2.2v-7.1c0-0.9,0.2-1.7,0.6-2.3c0.4-0.7,0.9-1.2,1.6-1.6c0.7-0.4,1.4-0.6,2.2-0.6  c0.8,0,1.4,0.2,1.9,0.7c0.4,0.5,0.7,1.1,0.7,1.8v9.1C231.8,32.2,234,32.2,234,32.2z"/>
</svg>