<svg xmlns="http://www.w3.org/2000/svg" xmlns:xlink="http://www.w3.org/1999/xlink" viewBox="0 0 398.86 150"><defs><style>.cls-1{fill:#292f52;}.cls-2{fill:url(#Degradado_sin_nombre_402);}</style><linearGradient id="Degradado_sin_nombre_402" x1="58.1" y1="57" x2="192.7" y2="204.41" gradientUnits="userSpaceOnUse"><stop offset="0" stop-color="#ff8c4a"/><stop offset="0.12" stop-color="#ff7a47"/><stop offset="0.36" stop-color="#ff4c40"/><stop offset="0.68" stop-color="#fe0534"/></linearGradient></defs><g id="Logo"><path class="cls-1" d="M150.42,59.94a14.61,14.61,0,0,1,12.67,6.6l-5.94,3.3a8.31,8.31,0,0,0-6.87-3.56c-4.88,0-8.18,3.69-8.18,8.58a9.16,9.16,0,0,0,2.24,6.2,7.86,7.86,0,0,0,5.94,2.38,8,8,0,0,0,6.87-3.56l5.94,3.43a15.14,15.14,0,1,1-12.67-23.37Z"/><path class="cls-1" d="M182.23,59.94a15.05,15.05,0,1,1-15.18,15A14.75,14.75,0,0,1,182.23,59.94Zm0,6.34c-4.88,0-8.19,3.69-8.19,8.58a9.16,9.16,0,0,0,2.25,6.2,8.6,8.6,0,0,0,11.88,0,8.46,8.46,0,0,0,2.38-6.2C190.55,70.11,187.25,66.28,182.23,66.28Z"/><path class="cls-1" d="M207.18,80c1.45,2.37,4.62,4.09,8.32,4.09s6.33-1.06,6.33-2.77-1.19-2.38-5.54-3.43L212.06,77c-5.94-1.32-8.84-3.83-8.84-8,0-5.41,5.15-9,12.41-9a14.93,14.93,0,0,1,7.65,1.85,13.67,13.67,0,0,1,5,4.36l-5.41,3c-1.32-2.11-4.36-3.56-7.53-3.56s-5.41,1-5.41,2.77,1.19,2.38,5.55,3.3l4.22.92c5.94,1.33,8.85,4,8.85,8.19,0,5.41-5.68,9-13.34,9a16.8,16.8,0,0,1-8.31-2A13.3,13.3,0,0,1,201.64,83Z"/><path class="cls-1" d="M280.84,89.25h-7.26V73.67c0-4.88-2-7.39-5.68-7.39s-6.46,3.3-6.46,8V89.25h-7.27V73.67c0-4.88-2-7.39-5.67-7.39a5.82,5.82,0,0,0-4.62,2.24A9.26,9.26,0,0,0,242,74.33V89.25h-7.26V60.73H242v4.1a9.27,9.27,0,0,1,8.18-4.89c4.49,0,7.79,2,9.64,5.55a10.39,10.39,0,0,1,9.64-5.55c7,0,11.35,4.89,11.35,13.2V89.25Z"/><path class="cls-1" d="M292.19,48.32a4.34,4.34,0,0,1,4.49,4.36,4.49,4.49,0,0,1-9,0A4.34,4.34,0,0,1,292.19,48.32Zm3.7,40.93h-7.26V60.73h7.26Z"/><path class="cls-1" d="M332.85,60.73V89.25h-7.26v-4c-1.85,3.17-5.28,4.75-9.24,4.75-7.92,0-13.86-6.6-13.86-15.05s5.94-15.18,13.86-15c4,0,7.39,1.59,9.24,4.75v-4Zm-15.44,5.55a7.67,7.67,0,0,0-5.94,2.51,8.88,8.88,0,0,0-2.25,6.2c0,4.89,3.3,8.71,8.06,8.71s8.05-3.43,8.05-8.71C325.59,69.71,322.16,66.28,317.41,66.28Z"/><path class="cls-1" d="M368.89,89.25h-7.26V73.67c0-4.88-2.24-7.39-6.47-7.39s-7.26,3.17-7.26,8V89.25h-7.26V60.73h7.26v4.1a10,10,0,0,1,9-4.89c7.39,0,12,4.89,12,13.2Z"/><path class="cls-2" d="M90.53,120H59.89a14.32,14.32,0,0,1-14.27-14.27,1.18,1.18,0,0,0-1.17-1.17A14.25,14.25,0,0,1,30.18,90.3V59.66A14.33,14.33,0,0,1,44.45,45.39a1.11,1.11,0,0,0,1.17-1.17A14.33,14.33,0,0,1,59.89,30H90.53A14.33,14.33,0,0,1,104.8,44.22v1.87A14.32,14.32,0,0,1,90.53,60.36H61.64a1.18,1.18,0,0,0-1.17,1.17v27a1.18,1.18,0,0,0,1.17,1.17H90.53A14.32,14.32,0,0,1,104.8,104v1.87A14.15,14.15,0,0,1,90.53,120ZM59.89,37a7.28,7.28,0,0,0-7.25,7.25,8.14,8.14,0,0,1-8.19,8.19,7.21,7.21,0,0,0-7.25,7.25V90.3a7.29,7.29,0,0,0,7.25,7.25,8.14,8.14,0,0,1,8.19,8.19A7.28,7.28,0,0,0,59.89,113H90.53a7.28,7.28,0,0,0,7.25-7.25v-1.87a7.28,7.28,0,0,0-7.25-7.25H61.64a8.13,8.13,0,0,1-8.18-8.19V61.53a8.13,8.13,0,0,1,8.18-8.19H90.53a7.28,7.28,0,0,0,7.25-7.25V44.22A7.28,7.28,0,0,0,90.53,37Z"/></g></svg>