<svg width="106" height="29" viewBox="0 0 106 29" fill="none" xmlns="http://www.w3.org/2000/svg">
<path d="M84.1119 23.098V27.921H85.9189C87.4919 27.921 88.4734 26.933 88.4734 25.5095C88.4734 24.086 87.4919 23.098 85.9189 23.098H84.1119ZM87.3424 25.5095C87.3424 26.3935 86.8354 26.9005 85.9189 26.9005H85.2429V24.1185H85.9189C86.8354 24.1185 87.3424 24.6255 87.3424 25.5095ZM89.347 23.098V27.921H92.8635V26.907H90.4715V26.01H92.532V25.009H90.4715V24.112H92.7985V23.098H89.347ZM93.7187 23.098V27.921H94.8042V25.0935L95.8637 26.9785H96.7867L97.8332 25.113V27.921H98.9317V23.098H97.8397L96.3317 25.776L94.8237 23.098H93.7187ZM99.8013 25.5095C99.7818 26.9265 100.867 28.0315 102.265 28.012C103.662 28.0315 104.748 26.9265 104.728 25.5095C104.748 24.0925 103.662 22.9875 102.265 23.007C100.867 22.9875 99.7818 24.0925 99.8013 25.5095ZM103.597 25.5095C103.597 26.3285 103.058 26.9525 102.265 26.9525C101.472 26.9525 100.932 26.3285 100.932 25.5095C100.932 24.6905 101.472 24.0665 102.265 24.0665C103.058 24.0665 103.597 24.6905 103.597 25.5095Z" fill="#9493A0"/>
<path d="M37.286 9.23771C38.9495 9.23771 40.441 10.041 41.244 11.3033L39.4084 12.3361C38.9495 11.7049 38.2038 11.2459 37.286 11.2459C35.7946 11.2459 34.762 12.3934 34.762 13.8852C34.762 14.6885 34.9915 15.2623 35.4504 15.8361C35.9666 16.3525 36.5403 16.582 37.286 16.582C38.2038 16.582 38.9495 16.1803 39.4084 15.4918L41.244 16.582C40.441 17.8443 39.0069 18.6475 37.286 18.6475C34.6473 18.7049 32.5249 16.582 32.5822 14C32.5249 11.3033 34.5899 9.23771 37.286 9.23771Z" fill="#443854"/>
<path d="M47.1524 9.23771C49.8485 9.23771 51.8562 11.2459 51.8562 13.8852C51.8562 16.5246 49.8485 18.5328 47.1524 18.5328C44.5137 18.5902 42.3913 16.4672 42.4486 13.8852C42.3913 11.3033 44.5137 9.23771 47.1524 9.23771ZM47.1524 11.2459C45.661 11.2459 44.6284 12.3934 44.6284 13.8852C44.6284 14.6885 44.8579 15.2623 45.3168 15.8361C45.8331 16.2951 46.4067 16.582 47.1524 16.582C47.9555 16.582 48.5291 16.3525 48.988 15.8361C49.5043 15.3197 49.7338 14.6885 49.7338 13.8852C49.7338 12.3934 48.7012 11.2459 47.1524 11.2459Z" fill="#443854"/>
<path d="M54.8965 15.4918C55.3554 16.2377 56.3306 16.7541 57.4778 16.7541C58.5677 16.7541 59.4282 16.4098 59.4282 15.8934C59.4282 15.377 59.084 15.1475 57.7073 14.8033L56.3879 14.5164C54.5523 14.1148 53.6345 13.3115 53.6345 11.9918C53.6345 10.3279 55.2407 9.18033 57.4778 9.18033C58.3383 9.18033 59.1414 9.35246 59.8297 9.7541C60.5181 10.1557 61.0343 10.5574 61.3785 11.1311L59.715 12.0492C59.3134 11.418 58.3383 10.959 57.3631 10.959C56.3879 10.959 55.6996 11.3033 55.6996 11.8197C55.6996 12.3361 56.0437 12.5656 57.4205 12.8525L58.7398 13.1393C60.5754 13.541 61.4932 14.3443 61.4932 15.6639C61.4932 17.3279 59.715 18.4754 57.3631 18.4754C56.3879 18.4754 55.5275 18.2459 54.7818 17.8443C54.036 17.4426 53.4624 16.9262 53.1182 16.3525L54.8965 15.4918Z" fill="#443854"/>
<path d="M77.7843 18.3607H75.5472V13.541C75.5472 12.0492 74.9162 11.2459 73.7689 11.2459C72.6216 11.2459 71.7612 12.2787 71.7612 13.7705V18.418H69.524V13.5984C69.524 12.1066 68.893 11.3033 67.7458 11.3033C67.1721 11.3033 66.6559 11.5328 66.3117 11.9918C65.9675 12.5082 65.7381 13.082 65.7381 13.7705V18.418H63.5009V9.52459H65.7381V10.7869C66.2543 9.86885 67.1721 9.29508 68.262 9.29508C69.6388 9.29508 70.6713 9.92623 71.2449 11.0164C71.8186 9.92623 72.8511 9.29508 74.2278 9.29508C76.4076 9.29508 77.727 10.7869 77.727 13.3689V18.3607H77.7843Z" fill="#443854"/>
<path d="M81.3408 5.62295C82.1439 5.62295 82.7175 6.19672 82.7175 7C82.7175 7.80328 82.1439 8.37705 81.3408 8.37705C80.5377 8.37705 79.9641 7.80328 79.9641 7C79.9641 6.19672 80.5377 5.62295 81.3408 5.62295ZM82.4881 18.3607H80.2509V9.52459H82.4881V18.3607Z" fill="#443854"/>
<path d="M93.9607 9.52459V18.3607H91.7235V17.1557C91.1499 18.1311 90.06 18.6475 88.8554 18.6475C86.3888 18.6475 84.5531 16.582 84.5531 14C84.4958 11.418 86.3888 9.29508 88.8554 9.35246C90.06 9.35246 91.1499 9.86885 91.7235 10.8443V9.63934H93.9607V9.52459ZM89.1422 11.2459C88.3965 11.2459 87.7655 11.4754 87.3066 12.0492C86.8477 12.5656 86.6182 13.1967 86.6182 14C86.6182 15.4918 87.6508 16.6967 89.1422 16.6967C90.6336 16.6967 91.6662 15.6066 91.6662 14C91.6662 12.2787 90.6336 11.2459 89.1422 11.2459Z" fill="#443854"/>
<path d="M105.147 18.3607H102.909V13.541C102.909 12.0492 102.221 11.2459 100.902 11.2459C99.5823 11.2459 98.6072 12.2213 98.6072 13.7131V18.3607H96.37V9.52459H98.6072V10.7869C99.1234 9.86885 100.099 9.29508 101.418 9.29508C103.712 9.29508 105.147 10.7869 105.147 13.3689V18.3607Z" fill="#443854"/>
<path d="M18.7004 27.9426H9.17809C6.76884 27.9426 4.76113 25.9344 4.76113 23.5246C4.76113 23.3525 4.58905 23.1803 4.41696 23.1803C1.95034 23.1803 0 21.1721 0 18.7623V9.18033C0 6.77049 2.00771 4.76229 4.41696 4.76229C4.64641 4.76229 4.76113 4.59016 4.76113 4.41803C4.76113 2.0082 6.76884 0 9.17809 0H18.7004C21.1096 0 23.1173 2.0082 23.1173 4.41803V4.9918C23.1173 7.40164 21.1096 9.40984 18.7004 9.40984H9.69436C9.52227 9.40984 9.35018 9.58197 9.35018 9.7541V18.1311C9.35018 18.3033 9.52227 18.4754 9.69436 18.4754H18.643C21.0522 18.4754 23.06 20.4836 23.06 22.8934V23.4672C23.1173 25.9344 21.167 27.9426 18.7004 27.9426ZM9.17809 2.12295C7.9161 2.12295 6.94093 3.15574 6.94093 4.36066C6.94093 5.79508 5.79367 6.88525 4.41696 6.88525C3.15497 6.88525 2.1798 7.91803 2.1798 9.12295V18.6475C2.1798 19.9098 3.21233 20.8852 4.41696 20.8852C5.85103 20.8852 6.94093 22.0328 6.94093 23.4098C6.94093 24.6721 7.97347 25.6475 9.17809 25.6475H18.7004C19.9624 25.6475 20.9375 24.6148 20.9375 23.4098V22.8361C20.9375 21.5738 19.905 20.5984 18.7004 20.5984H9.69436C8.26028 20.5984 7.17038 19.4508 7.17038 18.0738V9.7541C7.17038 8.31967 8.31765 7.22951 9.69436 7.22951H18.643C19.905 7.22951 20.8802 6.19672 20.8802 4.9918V4.41803C20.8802 3.15574 19.8476 2.18033 18.643 2.18033H9.17809V2.12295Z" fill="url(#paint0_linear_1721_863)"/>
<defs>
<linearGradient id="paint0_linear_1721_863" x1="8.61433" y1="8.34572" x2="50.4253" y2="54.1275" gradientUnits="userSpaceOnUse">
<stop stop-color="#FF8C4A"/>
<stop offset="0.1196" stop-color="#FF7A47"/>
<stop offset="0.3592" stop-color="#FF4C40"/>
<stop offset="0.6797" stop-color="#FE0534"/>
</linearGradient>
</defs>
</svg>
